<svg xmlns="http://www.w3.org/2000/svg" width="40" height="40">
    <path fill="#E0234E" fill-rule="nonzero" d="M23.197 2c-.26 0-.502.056-.725.13.474.316.735.735.865 1.209.009.065.028.111.037.176.01.056.018.112.018.168.038.818-.213.92-.39 1.404a1.987 1.987 0 0 0 .13 1.831c.028.065.065.14.112.205-.354-2.352 1.608-2.706 1.97-3.44.029-.642-.501-1.07-.92-1.367A2.054 2.054 0 0 0 23.197 2Zm2.957.53c-.038.214-.01.158-.019.27-.01.074-.01.167-.018.241a2.02 2.02 0 0 1-.066.223c-.018.075-.046.15-.074.224-.037.074-.065.139-.102.213-.028.038-.047.075-.075.112l-.055.084c-.047.065-.093.13-.14.186-.056.055-.102.12-.167.167v.01c-.056.046-.112.101-.177.148-.195.149-.418.26-.623.4-.065.046-.13.083-.186.14a1.36 1.36 0 0 0-.176.148c-.065.056-.112.111-.168.177-.046.055-.102.12-.14.186-.046.065-.092.13-.13.195-.036.074-.064.14-.102.214-.027.074-.055.139-.074.213a3.01 3.01 0 0 0-.065.233c-.01.037-.01.084-.019.12-.009.038-.009.075-.018.112 0 .075-.01.158-.01.233 0 .055 0 .111.01.167 0 .074.01.149.028.232.01.075.028.15.046.224.028.074.047.148.075.223.018.046.046.093.065.13l-2.139-.828a22.982 22.982 0 0 0-1.078-.278l-.586-.14a17.26 17.26 0 0 0-1.692-.25c-.018 0-.028-.01-.046-.01a16.623 16.623 0 0 0-2.882-.037 17.69 17.69 0 0 0-1.702.204c-.14.019-.279.047-.418.074-.288.056-.567.121-.837.186l-.418.112c-.14.056-.27.12-.4.177l-.307.14c-.018.008-.037.008-.046.018-.093.046-.177.083-.26.13a4.107 4.107 0 0 0-.353.177c-.066.027-.131.065-.187.092a.838.838 0 0 1-.084.047c-.083.046-.167.093-.241.14a2.34 2.34 0 0 0-.223.139c-.065.046-.13.084-.186.13-.01.01-.019.01-.028.019-.056.037-.121.083-.177.13l-.018.018-.14.112c-.019.01-.037.028-.056.037-.046.037-.093.084-.14.12-.008.02-.027.029-.036.038-.056.056-.112.102-.168.158-.009 0-.009.01-.018.019a2.613 2.613 0 0 0-.168.158c-.009.01-.009.018-.018.018a2.181 2.181 0 0 0-.14.15c-.018.018-.046.036-.065.055-.046.056-.102.112-.158.167-.01.019-.028.028-.037.047-.074.074-.14.149-.214.223l-.028.028a5.487 5.487 0 0 1-.474.455 5.285 5.285 0 0 1-.52.41 7.03 7.03 0 0 1-.558.353 5.666 5.666 0 0 1-.586.279c-.195.083-.4.158-.604.223-.39.083-.79.241-1.135.27-.074 0-.158.018-.232.027-.084.019-.158.037-.232.056l-.224.084c-.074.028-.148.065-.223.102-.065.046-.14.084-.204.13-.065.047-.13.102-.186.158-.065.047-.13.112-.186.168-.056.065-.112.12-.158.185-.047.075-.102.14-.14.214-.046.065-.093.14-.13.214-.037.084-.074.158-.102.242a7.165 7.165 0 0 0-.084.242c-.018.074-.037.148-.046.223 0 .009-.01.018-.01.028-.018.083-.018.195-.027.25-.01.066-.019.121-.019.187 0 .037 0 .083.01.12.009.066.018.121.037.177.018.056.037.112.065.167v.01c.027.056.065.111.102.167.037.056.074.112.12.167.047.047.103.103.159.15.056.055.111.101.176.148.224.195.28.26.568.409.046.028.093.046.148.074.01 0 .019.01.028.01 0 .018 0 .028.01.046.009.075.027.149.046.223.019.084.046.158.074.223.028.056.047.112.075.168.009.018.018.037.028.046.037.075.074.14.111.205l.14.195c.046.056.102.12.158.177.055.055.111.102.176.158 0 0 .01.01.019.01.056.046.111.092.167.13.065.046.13.083.205.12.065.037.14.074.214.102.055.028.12.047.186.065.009.01.018.01.037.019.037.01.083.019.12.028-.027.502-.037.976.038 1.143.084.186.493-.38.902-1.032-.056.642-.093 1.395 0 1.618.102.233.66-.493 1.143-1.292 6.592-1.525 12.607 3.03 13.24 9.464-.122-1.004-1.358-1.562-1.925-1.422-.28.688-.753 1.571-1.516 2.12a5.961 5.961 0 0 0-.093-1.86 6.013 6.013 0 0 1-1.153 2.343c-.883.065-1.766-.363-2.23-1.004-.038-.028-.047-.084-.075-.121-.028-.065-.056-.13-.075-.195a.772.772 0 0 1-.055-.195c-.01-.066-.01-.13-.01-.205v-.14c.01-.065.028-.13.047-.195.018-.065.037-.13.065-.195.037-.065.065-.13.111-.195.159-.446.159-.809-.13-1.023a1.059 1.059 0 0 0-.176-.093c-.038-.01-.084-.028-.121-.037-.028-.01-.047-.019-.075-.028-.065-.018-.13-.037-.195-.046a.708.708 0 0 0-.195-.028 1.516 1.516 0 0 0-.205-.019c-.046 0-.093.01-.139.01-.074 0-.14.009-.205.027-.065.01-.13.019-.195.038-.065.018-.13.037-.195.065-.065.028-.12.055-.186.083-.056.028-.112.065-.177.093-2.166 1.413-.874 4.723.605 5.68-.558.103-1.125.224-1.283.345l-.019.018c.4.242.818.447 1.255.623.595.195 1.227.372 1.506.447v.009a8.994 8.994 0 0 0 2.343.167c4.119-.288 7.494-3.421 8.107-7.549l.056.242c.028.167.065.344.084.52v.01c.018.083.028.167.037.241v.038c.01.083.018.167.018.241.01.103.019.205.019.307v.149c0 .046.01.102.01.149 0 .055-.01.111-.01.167v.13c0 .065-.01.121-.01.186 0 .037 0 .074-.009.12 0 .066-.009.131-.009.205-.01.028-.01.056-.01.084l-.027.214c0 .028 0 .056-.01.084-.009.093-.027.176-.037.27v.018l-.055.26v.028l-.056.251c0 .01-.01.028-.01.037a2.495 2.495 0 0 1-.065.251v.028c-.027.093-.055.177-.074.26-.01.01-.01.02-.01.02l-.083.278c-.037.093-.065.177-.102.27-.037.093-.065.186-.102.27-.038.092-.075.176-.112.269h-.01c-.037.084-.074.177-.12.26a.453.453 0 0 1-.028.065c-.01.01-.01.019-.019.028a8.8 8.8 0 0 1-2.612 3.124c-.075.046-.149.102-.223.158-.019.019-.047.028-.065.046-.065.047-.13.093-.205.14l.028.056h.01l.39-.056h.01c.24-.037.483-.084.724-.13.065-.01.14-.028.205-.047l.13-.028c.065-.009.13-.027.195-.037.056-.018.112-.028.168-.046a17.62 17.62 0 0 0 2.696-.893 14.89 14.89 0 0 1-5.774 4.714 15.297 15.297 0 0 0 3.17-.549 14.854 14.854 0 0 0 8.786-7.019 14.84 14.84 0 0 1-2.5 5.978 14.636 14.636 0 0 0 2.482-2.064 14.736 14.736 0 0 0 3.914-7.902c.316 1.469.409 2.984.27 4.48 6.712-9.361.557-19.067-2.018-21.624-.01-.019-.019-.028-.019-.047-.01.01-.01.01-.01.019 0-.01 0-.01-.008-.019 0 .112-.01.223-.019.335-.028.214-.056.418-.093.623-.046.204-.102.409-.158.614-.065.195-.14.4-.223.595a7.984 7.984 0 0 1-.279.567 7.103 7.103 0 0 1-.716 1.032c-.14.167-.288.316-.437.464a5.992 5.992 0 0 1-.27.233c-.074.065-.139.12-.213.186-.168.13-.335.25-.52.362a6.443 6.443 0 0 1-.55.317c-.195.093-.39.176-.585.26-.195.074-.4.14-.604.195a7.489 7.489 0 0 1-.623.14c-.214.037-.428.055-.633.074-.148.01-.297.019-.446.019a6.99 6.99 0 0 1-.632-.038 4.705 4.705 0 0 1-.632-.093 4.704 4.704 0 0 1-.623-.158h-.01c.205-.018.41-.037.614-.074a6.739 6.739 0 0 0 1.227-.335c.205-.074.4-.167.586-.26.195-.093.372-.195.558-.307.177-.12.353-.242.52-.372.168-.13.326-.27.475-.418.158-.14.297-.298.437-.456.14-.167.27-.334.39-.502.019-.028.037-.065.056-.093a6.408 6.408 0 0 0 .772-1.608c.065-.195.111-.4.158-.604.037-.214.074-.419.093-.623.018-.214.037-.428.037-.633 0-.148-.01-.297-.019-.446-.018-.214-.046-.418-.074-.623a6.74 6.74 0 0 0-.14-.623c-.065-.195-.13-.4-.204-.595a6.423 6.423 0 0 0-.26-.576c-.103-.186-.205-.372-.317-.549-.12-.176-.241-.344-.371-.51a19.67 19.67 0 0 0-.428-.475 5.816 5.816 0 0 0-.242-.232 17.118 17.118 0 0 0-1.292-.912 1.731 1.731 0 0 0-.186-.093 3.625 3.625 0 0 0-.883-.39Z"/>
</svg>
