<?xml version="1.0" encoding="UTF-8"?>
<svg width="16px" height="16px" viewBox="0 0 40 40" version="1.1" xmlns="http://www.w3.org/2000/svg">
    <title>Logo</title>
    <g id="Logo" stroke="none" stroke-width="1" fill="none" fill-rule="evenodd">
        <g id="nestjs" transform="translate(2.000000, 2.000000)" fill="#E0234E" fill-rule="nonzero">
            <path d="M21.1972133,0 C20.9368969,0 20.6951747,0.0557839849 20.4720441,0.130158603 C20.9461911,0.446257637 21.2065089,0.864627957 21.3366714,1.33877651 C21.3459944,1.40385487 21.3645627,1.45034246 21.3738713,1.51541866 C21.3831944,1.57120266 21.3924541,1.62698463 21.3924541,1.68276832 C21.4296598,2.5009071 21.1786176,2.60317451 21.0019767,3.08662161 C20.7323603,3.70952674 20.8067344,4.37891385 21.1321335,4.9181445 C21.1600261,4.98322114 21.1972133,5.05759763 21.2437017,5.12267787 C20.8904085,2.7705223 22.8520925,2.41723408 23.2146728,1.68276832 C23.2425641,1.04127012 22.7126343,0.613605419 22.2942684,0.316099321 C21.8944955,0.0743766324 21.531905,0 21.1972133,0 Z M24.1536772,0.529932391 C24.1164743,0.743764167 24.1443685,0.687981908 24.1350988,0.799547719 C24.1257901,0.873922482 24.1257901,0.966895359 24.1165188,1.04127012 C24.097939,1.1156469 24.0793131,1.19002166 24.0514362,1.26440174 C24.0328578,1.33877651 24.004952,1.41315314 23.9770621,1.48752776 C23.9398564,1.56190798 23.9119823,1.62698463 23.8747939,1.70136111 C23.846904,1.73856468 23.8283097,1.77573587 23.8004184,1.81292693 C23.7818385,1.84081784 23.7632155,1.8687089 23.7446371,1.89659981 C23.698153,1.96168178 23.6516646,2.02675842 23.6051819,2.08254023 C23.5493963,2.13832423 23.5029122,2.20340073 23.4378294,2.24988989 C23.4378294,2.25919852 23.4378294,2.25919852 23.4378294,2.25919852 C23.3820482,2.3056841 23.3262655,2.36146607 23.2611886,2.40794992 C23.0659491,2.55670117 22.8428228,2.66826683 22.6382847,2.80772356 C22.5732092,2.85420741 22.5081252,2.8913986 22.4523453,2.94718029 C22.387267,2.99366414 22.3314829,3.04014798 22.275703,3.09593167 C22.2106203,3.15171364 22.1641362,3.20749734 22.1083521,3.27257744 C22.0618679,3.32836128 22.0060868,3.3934382 21.9688997,3.45852003 C21.9224112,3.52359653 21.8759285,3.5886769 21.8387372,3.65375513 C21.8015357,3.72812974 21.7736588,3.79321171 21.7364704,3.86758661 C21.7085805,3.94196123 21.6806863,4.00704348 21.6620949,4.08141796 C21.6342035,4.16509286 21.6156092,4.23946949 21.5970151,4.31384784 C21.5877064,4.35105113 21.5877064,4.397519 21.5784353,4.43470818 C21.5691123,4.47191161 21.5691123,4.50908294 21.5598568,4.54627399 C21.5598568,4.62064861 21.5505482,4.70432351 21.5505482,4.77869828 C21.5505482,4.83448198 21.5505482,4.89026379 21.5598568,4.94604764 C21.5598568,5.02042254 21.5691654,5.09479746 21.5877468,5.17847206 C21.5970553,5.25284668 21.6156353,5.32722331 21.6342352,5.40160355 C21.6621266,5.47597816 21.6807207,5.55035479 21.7086092,5.62472955 C21.7271919,5.67121887 21.7550933,5.71770257 21.7736918,5.75488816 L19.6353669,4.92745067 C19.2727794,4.82518313 18.9194948,4.73221558 18.5569073,4.64854068 C18.3616709,4.60205698 18.1664343,4.55556981 17.9711949,4.50908409 C17.4133695,4.39752015 16.846254,4.31384885 16.2791315,4.25806702 C16.2605531,4.25806702 16.2512415,4.24875696 16.2326474,4.24875696 C15.6748205,4.19297514 15.1262979,4.16508408 14.5684752,4.16508408 C14.1594022,4.16508408 13.7503291,4.18366263 13.3505559,4.21156793 C12.7834351,4.24877136 12.2163134,4.32313359 11.6491964,4.41610114 C11.5097394,4.43468157 11.3702826,4.46259032 11.2308255,4.49048152 C10.9426179,4.54625975 10.6637085,4.61134171 10.3940935,4.67642181 C10.2546367,4.71362522 10.1151797,4.75079844 9.97572287,4.78798417 C9.83627047,4.84376584 9.70611228,4.90884811 9.57594952,4.96462992 C9.47368254,5.01111377 9.37141601,5.05759921 9.2691489,5.10408665 C9.2505692,5.11339672 9.23194605,5.11339672 9.22266475,5.12266707 C9.12969217,5.16915077 9.04601813,5.20633636 8.96234826,5.25282539 C8.93445678,5.26213546 8.91585952,5.27140408 8.89726689,5.28071659 C8.79500005,5.32720058 8.69273352,5.38298241 8.60905904,5.42946784 C8.54397781,5.4573589 8.47890087,5.49454808 8.42311832,5.52244085 C8.39522669,5.54101941 8.35803665,5.55964255 8.339444,5.56892471 C8.25577012,5.61540856 8.17209594,5.66189211 8.09772032,5.70838143 C8.01404613,5.75486514 7.93967051,5.80134898 7.87458926,5.84783283 C7.80951263,5.89432201 7.74443152,5.93150759 7.68864841,5.97799129 C7.67933402,5.98730136 7.67006871,5.98730136 7.66075691,5.99657186 C7.60497437,6.03377514 7.53989743,6.0802446 7.4841149,6.12673377 C7.4841149,6.12673377 7.47480195,6.13604239 7.46553504,6.14531389 C7.41905092,6.18251732 7.37256218,6.21968895 7.32607817,6.25687453 C7.30749863,6.2661846 7.28887518,6.28476545 7.27029549,6.2940778 C7.22381136,6.33128153 7.17732721,6.3777527 7.13084293,6.41494174 C7.12153,6.43352202 7.10295174,6.4428328 7.09363994,6.45214531 C7.03785725,6.50792728 6.98207442,6.55441099 6.92629173,6.61019483 C6.91697879,6.61019483 6.91697879,6.61950489 6.90771204,6.62877338 C6.85192935,6.67525895 6.7961468,6.73104106 6.74036411,6.78682477 C6.73105116,6.79613483 6.73105116,6.80540317 6.72178427,6.80540317 C6.67530013,6.85188716 6.62881599,6.89837618 6.5823274,6.95415441 C6.56374798,6.97273469 6.53584326,6.99135813 6.51725061,7.00993638 C6.47076648,7.06572023 6.41498364,7.1215022 6.3592011,7.17728604 C6.34988815,7.19586473 6.33130975,7.2051771 6.32199796,7.22376975 C6.24762219,7.29814998 6.18254094,7.37252474 6.10816546,7.44690122 C6.09885252,7.45621128 6.08958591,7.46547934 6.08027427,7.47479229 C5.93151884,7.63284166 5.77346904,7.79089118 5.60612514,7.93034689 C5.43877722,8.07909785 5.26213447,8.21855458 5.085488,8.33941564 C4.89954684,8.46957812 4.72290453,8.58113919 4.52766497,8.69270456 C4.34172382,8.79496851 4.14648442,8.88794255 3.94195075,8.97161802 C3.74671105,9.05529062 3.54217755,9.12966898 3.33764346,9.19474446 C2.94716448,9.27841705 2.54739098,9.43646801 2.20340046,9.46435936 C2.12902498,9.46435936 2.0453508,9.48294063 1.97097518,9.49224926 C1.88730143,9.5108291 1.8129258,9.52945355 1.73855032,9.54803484 C1.6641747,9.5759233 1.5897949,9.60381609 1.51541913,9.63170599 C1.44104351,9.65959733 1.36666802,9.69678723 1.2922924,9.73397569 C1.22721116,9.78045839 1.15283582,9.81764829 1.08775429,9.86413243 C1.02267707,9.91061657 0.957595826,9.96639781 0.901812992,10.0221819 C0.836736209,10.0686704 0.771654964,10.1337488 0.71587213,10.1895286 C0.660089296,10.2546127 0.604306751,10.310394 0.557822557,10.3754694 C0.511338406,10.4498449 0.455555614,10.5149276 0.418365601,10.5893045 C0.371881464,10.6543858 0.325397343,10.7287598 0.288207329,10.8031324 C0.251004265,10.8868108 0.213831876,10.9611848 0.185940401,11.0448603 C0.15804907,11.1192358 0.130157726,11.2029084 0.102266381,11.2865838 C0.0836867967,11.3609579 0.0650633461,11.4353348 0.055782273,11.5097074 C0.055782273,11.5190304 0.0464709144,11.5282901 0.0464709144,11.5376002 C0.0278911868,11.6212785 0.0278911868,11.7328453 0.0185794542,11.7886295 C0.00926809571,11.8537064 0,11.9094862 0,11.9745689 C0,12.0117718 0,12.0582386 0.00931135852,12.0954271 C0.018622717,12.1605098 0.027890784,12.216291 0.0465144074,12.272078 C0.0650939911,12.3278521 0.0837174707,12.3836362 0.111591349,12.4394203 C0.111591349,12.448729 0.111591349,12.448729 0.111591349,12.448729 C0.13948268,12.504516 0.17667268,12.5602958 0.213858291,12.6160785 C0.251061339,12.6718612 0.288238146,12.7276439 0.334722282,12.783428 C0.381206405,12.8299121 0.436989239,12.8856905 0.492771857,12.9321775 C0.548554676,12.9879602 0.604337539,13.0344443 0.669414323,13.0809285 C0.892545227,13.2761693 0.948327917,13.3412506 1.23653633,13.4900001 C1.28302003,13.5178929 1.32950891,13.5364871 1.3852916,13.5643785 C1.39460455,13.5643785 1.4038713,13.5736871 1.4131828,13.5736871 C1.4131828,13.5922655 1.4131828,13.6015799 1.42249575,13.620177 C1.43180724,13.6945539 1.45038694,13.7689265 1.46897989,13.8433048 C1.48755943,13.9269789 1.51546847,14.0013573 1.54335983,14.0664341 C1.57125116,14.1222182 1.58984397,14.1779981 1.61773545,14.2337836 C1.62704696,14.252365 1.6363153,14.2709865 1.6456268,14.2802678 C1.68282979,14.3546418 1.72000228,14.4197274 1.75718786,14.4848015 C1.80367646,14.5498798 1.85016045,14.6149583 1.89664445,14.6800423 C1.94312887,14.7358222 1.9989117,14.8009019 2.05469425,14.8566832 C2.11047708,14.9124673 2.16625991,14.9589529 2.2313413,15.0147312 C2.2313413,15.0147312 2.24065425,15.0240542 2.24992072,15.0240542 C2.30570369,15.0705428 2.36148609,15.1170283 2.41726906,15.154211 C2.482346,15.2006981 2.54742725,15.2378835 2.62180257,15.2750749 C2.68688396,15.3122778 2.7612596,15.3494505 2.83563508,15.3773432 C2.89141791,15.4052346 2.95649468,15.4238303 3.02157622,15.442423 C3.03088916,15.451746 3.04015577,15.451746 3.05877936,15.4610058 C3.09598235,15.4703288 3.14244879,15.4795828 3.17963883,15.4888943 C3.15174763,15.9909341 3.1424357,16.4650826 3.21684211,16.6324335 C3.30051182,16.818373 3.70958359,16.2512533 4.11865566,15.6004611 C4.06287311,16.2419576 4.02568291,16.9950139 4.11865566,17.2181489 C4.22092233,17.4505697 4.77874534,16.7254005 5.26219259,15.9258542 C11.8538014,14.4011433 17.8690029,18.9566965 18.5011995,25.3902555 C18.380337,24.3861729 17.1438293,23.8283518 16.5767126,23.9678099 C16.2977977,24.6557891 15.8236491,25.5390079 15.0612929,26.0875349 C15.1263712,25.4739281 15.0984928,24.8417315 14.9683231,24.2281233 C14.7637852,25.0834537 14.3640107,25.8830041 13.8154823,26.5709834 C12.9322626,26.6360603 12.0490407,26.2083945 11.5841862,25.5669022 C11.5469831,25.5390079 11.5377019,25.4832266 11.5098106,25.4460396 C11.4819189,25.3809541 11.454028,25.3158815 11.435435,25.2507988 C11.4075438,25.1857219 11.388951,25.1206407 11.3796524,25.0555636 C11.3703395,24.990481 11.3703395,24.9254027 11.3703395,24.8510287 C11.3703395,24.8045401 11.3703395,24.7580574 11.3703395,24.7115748 C11.3796524,24.6464892 11.3982308,24.5814109 11.4168237,24.516331 C11.4354033,24.4512541 11.4540266,24.3861729 11.481905,24.321093 C11.5191081,24.2560176 11.5469819,24.1909363 11.5934705,24.1258594 C11.75152,23.679595 11.75152,23.3170133 11.4633123,23.1031825 C11.4075295,23.0659796 11.3517468,23.0380999 11.2866656,23.0102085 C11.2494622,23.0008998 11.2029913,22.9823172 11.165806,22.9730071 C11.1379145,22.9636984 11.1193218,22.9544243 11.0914303,22.9451143 C11.0263489,22.9265345 10.9612676,22.90791 10.8961906,22.8986301 C10.8311094,22.8800517 10.7660325,22.8707388 10.7009512,22.8707388 C10.6358741,22.8614158 10.5614941,22.8521589 10.4964173,22.8521589 C10.4499333,22.8521589 10.4034447,22.8614676 10.3569604,22.8614676 C10.2825851,22.8614676 10.2175038,22.8707906 10.1524266,22.889359 C10.0873454,22.898682 10.0222686,22.9079374 9.95718734,22.9265589 C9.89211012,22.9451401 9.82702873,22.9637631 9.7619475,22.9916444 C9.6968707,23.0195344 9.64108773,23.0474257 9.57600678,23.075317 C9.52022841,23.1032098 9.46444542,23.140394 9.39936433,23.1682853 C7.23314934,24.5814368 8.52544198,27.8911882 10.0036716,28.8487852 C9.44584832,28.9510521 8.8787312,29.0719188 8.7206814,29.1927756 C8.71136845,29.2020841 8.70210184,29.2113568 8.70210184,29.2113568 C9.10187521,29.4530776 9.52024164,29.6576141 9.95720029,29.8342564 C10.5522135,30.0294958 11.1844117,30.2061395 11.4633253,30.2805179 C11.4633253,30.2805179 11.4633253,30.2898265 11.4633253,30.2898265 C12.2349807,30.4478775 13.0159349,30.5036602 13.8061838,30.4571761 C17.9247812,30.1689669 21.2996125,27.0358564 21.9132191,22.9079661 C21.9317989,22.9916416 21.950422,23.0660142 21.9690018,23.1496912 C21.9968947,23.3170334 22.0340787,23.4936786 22.0526716,23.6703223 C22.0526716,23.6703223 22.0526716,23.6703223 22.0526716,23.6796453 C22.0712514,23.7633193 22.0805629,23.846992 22.0898744,23.9213675 C22.0898744,23.9399473 22.0898744,23.9492588 22.0898744,23.9585718 C22.0991974,24.0422444 22.1084557,24.1259198 22.1084557,24.2002939 C22.1177642,24.3025622 22.1270355,24.4048275 22.1270355,24.5071001 C22.1270355,24.5535843 22.1270355,24.6000698 22.1270355,24.655851 C22.1270355,24.7023395 22.1363442,24.7581165 22.1363442,24.8046048 C22.1363442,24.8603891 22.1270355,24.9161674 22.1270355,24.9719501 C22.1270355,25.01844 22.1270355,25.0649227 22.1270355,25.1021083 C22.1270355,25.1671909 22.1177125,25.2229708 22.1177125,25.2880505 C22.1177125,25.3252505 22.1177125,25.3624275 22.1084038,25.4089131 C22.1084038,25.4739957 22.0990953,25.5390698 22.0990953,25.6134466 C22.0897723,25.6413381 22.0897723,25.6692293 22.0897723,25.6971222 C22.0804636,25.7714992 22.0711923,25.8365789 22.0618794,25.9109558 C22.0618794,25.9388487 22.0618794,25.9667371 22.0525708,25.9946312 C22.0432478,26.0875981 22.0246809,26.1712751 22.0153724,26.2642418 C22.0153724,26.2642418 22.0153724,26.2735649 22.0153724,26.2735649 L22.0153724,26.2828735 C21.9967924,26.3665461 21.9781666,26.4595158 21.9595853,26.5431884 C21.9595853,26.5524971 21.9595853,26.5617682 21.9595853,26.5710812 C21.9410083,26.6547524 21.9223824,26.7384293 21.9038055,26.822099 C21.9038055,26.831422 21.8944969,26.8499918 21.8944969,26.8592989 C21.8759141,26.9429759 21.8572912,27.0266484 21.82942,27.1103268 C21.82942,27.1196355 21.82942,27.1289038 21.82942,27.1382153 C21.8015286,27.2311822 21.7736357,27.3148576 21.7550402,27.3985317 C21.7457315,27.4078402 21.7457315,27.4171115 21.7457315,27.4171115 C21.7178387,27.5100841 21.6899502,27.6030523 21.6620618,27.696022 C21.624859,27.7889947 21.596982,27.8726673 21.5597949,27.9656384 C21.5225935,28.0586095 21.4947122,28.1515807 21.4575252,28.2352518 C21.4203209,28.3282259 21.3831468,28.4118999 21.3459614,28.5048668 C21.3459614,28.5048668 21.3366383,28.5048668 21.3366383,28.5048668 C21.2994326,28.5885394 21.262257,28.6815133 21.21577,28.7651888 C21.21577,28.7651888 21.21577,28.7651888 21.21577,28.7651888 C21.21577,28.7651888 21.21577,28.7651888 21.21577,28.7651888 C21.2064614,28.7930759 21.197193,28.811673 21.1878816,28.8302629 C21.1785729,28.8395859 21.1785729,28.8488427 21.1693018,28.8581572 C20.5649951,30.0760677 19.6724734,31.1452287 18.5568311,31.9819662 C18.4824557,32.0284503 18.4080773,32.0842344 18.3337033,32.1400143 C18.3337033,32.1400143 18.3337033,32.1400143 18.3337033,32.1400143 C18.3151219,32.1585955 18.2872148,32.1679084 18.268622,32.1864983 C18.2035408,32.2329839 18.1384623,32.2794667 18.0640898,32.3259566 L18.0919797,32.3817393 L18.1012883,32.3817393 C18.231445,32.3631609 18.3616047,32.3445364 18.4917642,32.3259566 L18.5010729,32.3259566 C18.7427978,32.2887537 18.9845214,32.2422826 19.2262465,32.1957984 C19.291322,32.1864754 19.3657032,32.1679084 19.4307787,32.1493099 C19.4772628,32.1399869 19.5144526,32.1307315 19.5609368,32.1214186 C19.626018,32.1120956 19.6910965,32.0935272 19.7561791,32.0842171 C19.8119589,32.0656373 19.867743,32.0563229 19.9235243,32.0377316 C20.8532287,31.8145994 21.755046,31.5077946 22.6196661,31.1452128 C21.1414392,33.162671 19.1611637,34.7896575 16.8461979,35.8588186 C17.9153619,35.7844416 18.9845214,35.6077993 20.016494,35.3102946 C23.7632084,34.2039393 26.9149073,31.6844412 28.8022087,28.2910158 C28.4210298,30.4386379 27.5657011,32.4839888 26.3013034,34.2690248 C27.2031165,33.6740081 28.0305539,32.9860273 28.7836159,32.2050753 C30.8661553,30.0295662 32.2328254,27.2683447 32.697674,24.3025779 C33.013776,25.7715135 33.1067471,27.286939 32.9672904,28.7837615 C39.6797642,19.4216271 33.5251129,9.71550232 30.9498308,7.15881281 C30.9405078,7.14023397 30.9312509,7.13092175 30.9312509,7.11232882 C30.9219279,7.12163744 30.9219279,7.12163744 30.9219279,7.13090924 C30.9219279,7.12159917 30.9219279,7.12159917 30.9126194,7.11232882 C30.9126194,7.22389448 30.9033107,7.33545498 30.8940394,7.44702078 C30.8661467,7.66085299 30.8382583,7.86538794 30.8010669,8.06992591 C30.7545841,8.27445956 30.6988,8.47899034 30.6430159,8.68352974 C30.577939,8.87876484 30.5035664,9.08329994 30.4198895,9.27854079 C30.3362155,9.46447878 30.2432442,9.65971818 30.1409775,9.84566192 C30.0387092,10.0223071 29.9271452,10.2082465 29.8062856,10.3755917 C29.6854231,10.5522398 29.5552636,10.7195836 29.4251025,10.8776302 C29.2856444,11.0449811 29.1368962,11.193735 28.9881409,11.3424874 C28.8951726,11.4261614 28.8115,11.5005369 28.7185246,11.5749095 C28.6441505,11.6399922 28.5790722,11.6957763 28.5046924,11.7608504 C28.3373473,11.89101 28.1700006,12.0118725 27.9840611,12.1234393 C27.807416,12.2350018 27.6214794,12.3465672 27.4355371,12.4395398 C27.2402978,12.5325095 27.0450584,12.6161821 26.8498218,12.6998575 C26.6545824,12.7742301 26.4500487,12.8393114 26.2455078,12.8950955 C26.0409756,12.9508753 25.8271449,12.9973623 25.6226084,13.0345494 C25.4087791,13.0717522 25.1949454,13.0903306 24.9904103,13.1089277 C24.8416564,13.1182363 24.6929054,13.127509 24.5441502,13.127509 C24.3303165,13.127509 24.1164886,13.1089277 23.9119521,13.0903062 C23.6981213,13.0717263 23.4842863,13.0438148 23.2797525,12.9973307 C23.0659204,12.9601278 22.8613825,12.9043581 22.6568474,12.839284 L22.6475387,12.839284 C22.8520738,12.8207042 23.0566103,12.8020783 23.2611483,12.7649057 C23.4749762,12.7277028 23.6795113,12.6812345 23.8840493,12.6254475 C24.088583,12.5696663 24.293118,12.504585 24.4883559,12.430211 C24.6928897,12.3558341 24.8881305,12.2628672 25.0740728,12.1698918 C25.2693093,12.0769192 25.4459545,11.9746552 25.631894,11.8630898 C25.8085363,11.7422288 25.9851814,11.6213692 26.1525281,11.4912067 C26.3198762,11.36105 26.4779228,11.2215961 26.626681,11.0728423 C26.7847304,10.9333827 26.9241843,10.7753346 27.063641,10.6172836 C27.2030934,10.4499413 27.3332545,10.2825932 27.4541169,10.1152452 C27.4726983,10.0873524 27.4913213,10.0501682 27.5099026,10.0222755 C27.6028694,9.87352162 27.6958377,9.72476921 27.7795103,9.57601394 C27.8817799,9.39007308 27.9747526,9.20413077 28.0584236,9.00889712 C28.1420992,8.8136577 28.2164761,8.61841685 28.2815558,8.41388463 C28.3466329,8.21864378 28.3931184,8.01411157 28.4396054,7.8095782 C28.4768097,7.59574484 28.5139794,7.39120659 28.5325751,7.18667322 C28.5511549,6.97284187 28.5697765,6.75900838 28.5697765,6.5544753 C28.5697765,6.4057203 28.5604535,6.25696906 28.5511995,6.10821766 C28.5326183,5.89438603 28.5047125,5.68984749 28.4768227,5.48531398 C28.4396183,5.27148076 28.3931501,5.06694769 28.3373644,4.86240885 C28.2722889,4.66717361 28.2072063,4.46263664 28.1328323,4.26740169 C28.0584511,4.07216112 27.9654857,3.87692258 27.8725102,3.69098013 C27.7702433,3.50503955 27.6679779,3.31909898 27.556414,3.14245668 C27.4355529,2.96581437 27.3146875,2.79846672 27.1845294,2.63111722 C27.0450771,2.47306756 26.9056202,2.31501818 26.7568636,2.15696867 C26.6824896,2.08259362 26.598814,1.99891886 26.5151415,1.92454425 C26.0967756,1.59914521 25.6598127,1.29234057 25.222854,1.013431 C25.1577757,0.976229017 25.101993,0.948350908 25.0369117,0.920458125 C24.7301069,0.725222738 24.4418992,0.622951739 24.1536929,0.529932391 L24.1536772,0.529932391 Z"
                  id="Shape"/>
        </g>
    </g>
</svg>