<svg xmlns="http://www.w3.org/2000/svg" width="16" height="16">
    <g fill="none" fill-rule="evenodd">
        <path fill="#9AA7B0" d="M13 1v14H3V6h5V1h5ZM7 1v4H3l4-4Z"/>
        <path fill="#E0234E" fill-rule="nonzero" d="M12.71 8a.507.507 0 0 0-.16.029c.105.07.163.163.191.269.003.014.007.024.009.039a.227.227 0 0 1 .004.037c.008.182-.048.204-.087.312a.441.441 0 0 0 .029.407.247.247 0 0 0 .025.045c-.079-.522.357-.6.438-.764.006-.143-.112-.238-.205-.304A.456.456 0 0 0 12.71 8Zm.657.118c-.008.047-.002.035-.004.06l-.004.053a.449.449 0 0 1-.014.05c-.004.017-.01.033-.017.05l-.022.047c-.007.008-.01.017-.017.025l-.012.018a.717.717 0 0 1-.031.042c-.013.012-.023.027-.038.037v.002c-.012.01-.024.023-.039.033-.043.033-.093.058-.138.089-.015.01-.03.019-.042.03a.302.302 0 0 0-.039.034c-.014.012-.025.025-.037.04-.01.012-.023.026-.031.04a.527.527 0 0 0-.029.044l-.023.047c-.006.017-.012.031-.016.048a.669.669 0 0 0-.015.052l-.004.026-.004.025-.002.052c0 .012 0 .025.002.037a.423.423 0 0 0 .017.101l.016.05c.004.01.01.02.015.029l-.476-.184a5.107 5.107 0 0 0-.24-.062l-.13-.031a3.836 3.836 0 0 0-.375-.056l-.01-.002a3.694 3.694 0 0 0-1.02.037 4.15 4.15 0 0 0-.279.058l-.092.025c-.031.012-.06.027-.089.04l-.068.03c-.004.002-.008.002-.01.004-.021.01-.04.019-.058.03a.913.913 0 0 0-.079.04c-.014.005-.029.013-.041.02a.186.186 0 0 1-.019.01l-.054.03a.52.52 0 0 0-.05.032c-.014.01-.028.018-.04.028-.002.003-.005.003-.007.005a.477.477 0 0 0-.039.028l-.004.005-.031.024-.012.009-.031.027c-.002.004-.007.006-.009.008l-.037.035c-.002 0-.002.002-.004.004a.58.58 0 0 0-.037.035c-.002.002-.002.004-.004.004l-.031.033-.015.013c-.01.012-.022.025-.035.037l-.008.01-.048.05-.006.006a1.22 1.22 0 0 1-.105.101 1.562 1.562 0 0 1-.24.17 1.488 1.488 0 0 1-.264.112c-.087.018-.176.053-.252.06-.017 0-.035.003-.052.005l-.052.013-.05.018-.049.023-.045.029a.337.337 0 0 0-.042.035c-.014.01-.029.025-.04.037-.013.015-.026.027-.036.042-.01.016-.023.03-.031.047a.364.364 0 0 0-.029.048l-.023.053a1.592 1.592 0 0 0-.018.054c-.004.017-.009.033-.01.05l-.003.006c-.004.019-.004.043-.006.056-.002.014-.004.027-.004.041 0 .008 0 .019.002.027a.22.22 0 0 0 .023.076v.002c.006.013.014.025.023.038l.026.037a.548.548 0 0 0 .075.066c.05.043.062.058.126.09.01.007.02.011.033.017l.006.002a.424.424 0 0 0 .029.11l.016.037.007.01a.906.906 0 0 0 .024.046l.031.043a.6.6 0 0 0 .036.04l.039.035.004.002a.453.453 0 0 0 .171.093l.009.004.027.006c-.007.112-.009.217.008.254.018.041.11-.085.2-.23-.012.143-.02.31 0 .36.023.052.147-.11.254-.287a2.388 2.388 0 0 1 2.942 2.103c-.026-.223-.301-.347-.427-.316-.062.153-.168.35-.337.471a1.325 1.325 0 0 0-.02-.413c-.046.19-.135.368-.257.52a.577.577 0 0 1-.496-.222c-.008-.007-.01-.02-.016-.027-.006-.015-.013-.03-.017-.044a.172.172 0 0 1-.012-.043c-.002-.015-.002-.029-.002-.046v-.03a.356.356 0 0 1 .025-.087c.008-.015.014-.03.024-.044.035-.099.035-.18-.029-.227a.235.235 0 0 0-.039-.02l-.027-.009-.016-.006c-.015-.004-.03-.008-.044-.01a.157.157 0 0 0-.043-.007.337.337 0 0 0-.045-.004l-.031.002a.161.161 0 0 0-.046.007c-.014.002-.029.004-.043.008a.356.356 0 0 0-.044.014l-.041.019c-.012.006-.025.014-.04.02-.48.315-.193 1.05.135 1.263-.124.023-.25.05-.285.076l-.004.004c.089.054.182.1.279.139.132.043.272.082.334.099v.002c.172.035.345.048.521.037a1.965 1.965 0 0 0 1.802-1.677l.012.053c.006.038.014.077.019.116v.002c.004.019.006.037.008.054v.008a.507.507 0 0 1 .004.054.754.754 0 0 1 .004.068v.033l.002.033-.002.037v.03l-.002.04c0 .009 0 .017-.002.027l-.002.046c-.002.006-.002.012-.002.018l-.006.048c0 .006 0 .012-.002.019-.003.02-.007.039-.009.06v.004l-.012.057v.007l-.012.055-.003.009a.554.554 0 0 1-.014.056v.006l-.017.058-.002.004-.018.062-.023.06c-.008.02-.014.04-.023.06l-.024.06h-.003c-.008.018-.016.039-.026.057a.1.1 0 0 1-.007.015l-.004.006c-.134.27-.332.508-.58.694-.017.01-.033.023-.05.035l-.014.01a.868.868 0 0 1-.046.032l.006.012h.003l.086-.012h.002a4.402 4.402 0 0 0 .207-.04l.029-.006.043-.008.037-.01c.207-.05.407-.118.6-.199-.329.448-.769.81-1.283 1.048a3.4 3.4 0 0 0 .704-.122 3.3 3.3 0 0 0 1.952-1.56 3.298 3.298 0 0 1-.555 1.328 3.253 3.253 0 0 0 1.421-2.214c.07.326.091.663.06.995 1.492-2.08.124-4.237-.448-4.805-.002-.004-.004-.006-.004-.01l-.002.004c0-.002 0-.002-.003-.004 0 .024-.002.05-.004.074a2.78 2.78 0 0 1-.02.138c-.01.046-.023.091-.035.137a1.718 1.718 0 0 1-.112.258 1.408 1.408 0 0 1-.16.23c-.03.036-.063.07-.096.103l-.06.051-.048.042a1.432 1.432 0 0 1-.238.15 1.455 1.455 0 0 1-.403.132c-.047.009-.094.013-.14.017a1.553 1.553 0 0 1-.519-.06h-.001a1.534 1.534 0 0 0 .409-.09 1.446 1.446 0 0 0 .254-.126c.04-.028.078-.054.116-.083a1.13 1.13 0 0 0 .105-.093c.035-.031.066-.066.097-.102.031-.037.06-.074.087-.111l.012-.02c.021-.034.042-.067.06-.1a1.424 1.424 0 0 0 .112-.258c.014-.044.025-.09.035-.135.008-.047.016-.093.02-.138.005-.047.009-.095.009-.14 0-.034-.002-.067-.004-.1a1.498 1.498 0 0 0-.048-.277l-.045-.132a1.427 1.427 0 0 0-.058-.128l-.07-.122a2.281 2.281 0 0 0-.083-.113 1.292 1.292 0 0 0-.149-.157 3.804 3.804 0 0 0-.287-.203.385.385 0 0 0-.041-.02.806.806 0 0 0-.197-.087Z"/>
    </g>
</svg>
