<?xml version="1.0" encoding="UTF-8"?>
<svg width="16px" height="16px" viewBox="0 0 16 16" version="1.1" xmlns="http://www.w3.org/2000/svg"
>
    <title>File</title>
    <g id="File" stroke="none" stroke-width="1" fill="none" fill-rule="evenodd">
        <path d="M13,1 L13,15 L3,15 L3,6 L8,6 L8,1 L13,1 Z M7,1 L7,5 L3,5 L7,1 Z" id="Combined-Shape" fill="#9AA7B0"
        />
        <g id="nestjs" transform="translate(8.000000, 8.000000)" fill="#E0234E" fill-rule="nonzero">
            <path d="M4.71049184,0 C4.65264375,0 4.59892772,0.0123964411 4.54934313,0.028924134 C4.65470913,0.0991683638 4.71255753,0.192139546 4.74148253,0.29750589 C4.74355431,0.311967749 4.74768059,0.322298325 4.74974919,0.336759703 C4.75182097,0.349156147 4.75387869,0.361552141 4.75387869,0.373948516 C4.76214663,0.555757134 4.70635947,0.578483225 4.66710594,0.685915913 C4.60719119,0.824339275 4.62371875,0.973091966 4.69602966,1.092921 C4.70222803,1.10738248 4.71049184,1.12391058 4.72082259,1.13837286 C4.642313,0.615671622 5.07824278,0.537163128 5.15881619,0.373948516 C5.16501425,0.23139336 5.04725206,0.13635676 4.95428188,0.0702442934 C4.86544344,0.0165281405 4.78486778,0 4.71049184,0 Z M5.36748381,0.117762753 C5.3592165,0.165280926 5.36541522,0.152884868 5.36335528,0.177677271 C5.36128669,0.194204996 5.36128669,0.214865635 5.35922641,0.23139336 C5.35509756,0.247921533 5.35095847,0.264449258 5.34476359,0.280978165 C5.34063506,0.29750589 5.33443378,0.314034031 5.32823603,0.330561725 C5.31996809,0.347090663 5.31377384,0.361552141 5.30550975,0.378080247 C5.299312,0.386347706 5.29517994,0.394607972 5.28898188,0.40287265 C5.284853,0.409070631 5.28071456,0.415268644 5.27658603,0.421466625 C5.26625622,0.435929284 5.25592547,0.450390759 5.24559597,0.462786719 C5.23319919,0.475183163 5.22286938,0.489644606 5.20840653,0.499975531 C5.20840653,0.502044116 5.20840653,0.502044116 5.20840653,0.502044116 C5.19601072,0.512374244 5.18361456,0.524770238 5.16915303,0.535099981 C5.12576647,0.568155816 5.07618284,0.592948184 5.03072994,0.623938569 C5.01626872,0.634268313 5.00180559,0.642533022 4.98941006,0.654928953 C4.97494822,0.665258697 4.96255175,0.675588441 4.95015622,0.687984816 C4.93569341,0.700380809 4.92536359,0.712777188 4.91296713,0.727239431 C4.90263731,0.739635841 4.8902415,0.754097378 4.88197772,0.768560006 C4.87164694,0.78302145 4.86131744,0.797483756 4.85305272,0.811945584 C4.84478572,0.828473275 4.83859084,0.842935934 4.83032675,0.859463691 C4.824129,0.875991384 4.81793028,0.890454106 4.81379888,0.906981769 C4.80760078,0.925576191 4.80346872,0.942104331 4.79933669,0.958632853 C4.79726809,0.96690025 4.79726809,0.977226444 4.79520784,0.985490706 C4.79313606,0.993758134 4.79313606,1.00201843 4.79107928,1.01028311 C4.79107928,1.0268108 4.78901072,1.04540523 4.78901072,1.06193295 C4.78901072,1.07432933 4.78901072,1.08672529 4.79107928,1.0991217 C4.79107928,1.11564945 4.79314788,1.13217721 4.79727706,1.15077157 C4.79934563,1.16729926 4.8034745,1.1838274 4.80760781,1.20035634 C4.81380591,1.21688403 4.81793794,1.23341218 4.82413538,1.2499399 C4.82826488,1.26027086 4.83446519,1.27060057 4.83859819,1.27886403 L4.36341488,1.09498904 C4.28283988,1.07226292 4.20433219,1.05160346 4.12375719,1.03300904 C4.08037131,1.02267933 4.03698541,1.01234885 3.99359888,1.00201869 C3.86963766,0.9772267 3.743612,0.958633078 3.61758478,0.946237116 C3.61345625,0.946237116 3.611387,0.944168213 3.60725497,0.944168213 C3.48329344,0.931772253 3.36139953,0.925574241 3.23743894,0.925574241 C3.14653381,0.925574241 3.05562869,0.929702806 2.9667902,0.935903984 C2.84076335,0.944171413 2.7147363,0.960696353 2.58871031,0.981355809 C2.55771986,0.985484794 2.52672948,0.991686738 2.495739,0.997884781 C2.43169288,1.01027994 2.369713,1.0247426 2.30979855,1.03920485 C2.27880817,1.04747227 2.24781772,1.05573299 2.2168273,1.06399648 C2.18583788,1.07639241 2.15691384,1.09085513 2.12798878,1.10325109 C2.10526279,1.11358084 2.08253689,1.12391093 2.05981087,1.13424148 C2.05568204,1.13631038 2.05154357,1.13631038 2.04948106,1.13837046 C2.02882048,1.14870017 2.01022625,1.15696363 1.99163295,1.16729453 C1.98543484,1.16936343 1.98130212,1.17142313 1.97717042,1.17349258 C1.95444446,1.18382235 1.93171856,1.19621831 1.91312423,1.20654841 C1.89866173,1.21274642 1.88420019,1.22101068 1.87180407,1.22720908 C1.86560593,1.23133765 1.85734148,1.23547612 1.85320978,1.23753883 C1.83461558,1.24786857 1.81602132,1.25819825 1.7994934,1.26852921 C1.78089914,1.27885892 1.76437123,1.28918866 1.74990873,1.29951841 C1.73544725,1.30984933 1.72098478,1.3181128 1.70858853,1.32844251 C1.70651867,1.33051141 1.70445971,1.33051141 1.70239043,1.33257153 C1.6899943,1.34083892 1.67553276,1.35116547 1.66313664,1.36149639 C1.66313664,1.36149639 1.6610671,1.36356498 1.65900779,1.36562531 C1.64867798,1.37389274 1.63834715,1.3821531 1.62801737,1.39041656 C1.62388858,1.39248547 1.61975004,1.39661454 1.61562122,1.39868396 C1.60529141,1.40695145 1.5949616,1.41727838 1.58463176,1.42554261 C1.58256222,1.42967156 1.57843372,1.43174062 1.57636443,1.43381007 C1.56396828,1.44620606 1.55157209,1.45653578 1.53917594,1.46893218 C1.5371064,1.46893218 1.5371064,1.47100109 1.53504712,1.47306075 C1.52265097,1.48339088 1.51025484,1.4957869 1.49785869,1.50818328 C1.49578915,1.51025218 1.49578915,1.51231182 1.49372984,1.51231182 C1.48340003,1.52264159 1.47307022,1.53297248 1.46273942,1.54536765 C1.45861066,1.5494966 1.45240961,1.55363514 1.44827791,1.55776364 C1.43794811,1.57016005 1.42555192,1.58255604 1.4131558,1.59495245 C1.41108626,1.59908105 1.40695772,1.60115047 1.40488843,1.60528217 C1.38836049,1.62181111 1.37389799,1.63833883 1.3573701,1.65486694 C1.35530056,1.65693584 1.35324131,1.65899541 1.35117206,1.66106495 C1.3181153,1.69618703 1.28299312,1.73130915 1.24580559,1.76229931 C1.20861716,1.79535508 1.16936322,1.82634546 1.13010844,1.85320348 C1.08878819,1.88212847 1.04953434,1.90691982 1.00614777,1.93171213 C0.964827516,1.95443745 0.921440981,1.97509834 0.875989056,1.99369289 C0.832602456,2.0122868 0.787150566,2.02881533 0.741698547,2.04327655 C0.654925441,2.06187046 0.566086884,2.09699289 0.489644547,2.10319097 C0.473116663,2.10319097 0.4545224,2.10732014 0.437994484,2.10938873 C0.419400319,2.11351758 0.4028724,2.11765634 0.386344516,2.12178552 C0.3698166,2.12798296 0.353287756,2.13418135 0.336759806,2.14037911 C0.320231891,2.14657718 0.303704005,2.15484161 0.287176088,2.16310571 C0.27271359,2.1734352 0.256185737,2.18169962 0.241723175,2.19202943 C0.227261571,2.20235924 0.212799073,2.21475507 0.200402887,2.22715154 C0.18594138,2.23748231 0.171478881,2.25194417 0.159082696,2.26433968 C0.14668651,2.27880282 0.134290389,2.29119866 0.123960568,2.30565988 C0.113630757,2.32218776 0.101234581,2.33665058 0.0929701334,2.35317878 C0.0826403253,2.36764128 0.0723105206,2.38416885 0.0640460731,2.40069609 C0.0557787256,2.41929128 0.0475181947,2.43581885 0.0413200891,2.4544134 C0.0351220156,2.47094128 0.028923939,2.48953519 0.0227258623,2.50812974 C0.0185970659,2.52465731 0.0144585213,2.54118551 0.0123960607,2.55771276 C0.0123960607,2.55978453 0.0103268699,2.56184225 0.0103268699,2.56391115 C0.0061980415,2.58250634 0.0061980415,2.60729897 0.00412876759,2.61969544 C0.00205957683,2.63415698 0,2.64655249 0,2.66101531 C0,2.66928261 0,2.67960858 0.00206919078,2.68787268 C0.00413838156,2.7023355 0.006197952,2.71473134 0.010336535,2.72712845 C0.0144653313,2.73952268 0.0186038824,2.75191916 0.0247980777,2.76431563 C0.0247980777,2.76638422 0.0247980777,2.76638422 0.0247980777,2.76638422 C0.0309961511,2.77878133 0.0392605956,2.79117684 0.0475240647,2.80357299 C0.0557914088,2.81596915 0.0640529213,2.8283653 0.0743827294,2.84076178 C0.0847125344,2.85109158 0.0971087197,2.86348678 0.109504857,2.87381723 C0.121901039,2.88621338 0.134297231,2.89654318 0.148758738,2.90687299 C0.198343384,2.95025985 0.210739537,2.96472235 0.27478585,2.9977778 C0.285115562,3.00397619 0.295446425,3.00810825 0.307842579,3.01430632 C0.309912121,3.01430632 0.311971401,3.01637491 0.314040622,3.01637491 C0.314040622,3.02050344 0.314040622,3.0225733 0.316110166,3.02670599 C0.318179388,3.0432342 0.322308209,3.05976144 0.326439975,3.07628997 C0.330568763,3.0948842 0.336770772,3.11141272 0.34296885,3.12587425 C0.349166925,3.13827072 0.353298659,3.15066625 0.359496766,3.16306303 C0.361565991,3.16719222 0.363625622,3.17133034 0.365694844,3.17339284 C0.373962175,3.18992041 0.382222728,3.20438388 0.390486191,3.21884478 C0.400816991,3.23330663 0.411146766,3.2477685 0.421476544,3.26223163 C0.431806416,3.27462716 0.4442026,3.28908931 0.456598722,3.30148516 C0.468994906,3.31388163 0.481391091,3.32421175 0.495853622,3.33660694 C0.495853622,3.33660694 0.497923166,3.33867872 0.499982381,3.33867872 C0.512378597,3.3490095 0.524774688,3.35933963 0.537170903,3.36760244 C0.551632444,3.37793291 0.566094944,3.38619634 0.582622794,3.39446109 C0.597085325,3.40272841 0.613613244,3.410989 0.630141128,3.41718738 C0.642537313,3.42338547 0.656998819,3.42751784 0.671461381,3.43164956 C0.673530925,3.43372134 0.675590172,3.43372134 0.679728747,3.43577906 C0.687996078,3.43785084 0.698321953,3.43990728 0.706586406,3.4419765 C0.700388363,3.55354091 0.698319044,3.65890725 0.714853803,3.69609634 C0.733447072,3.73741622 0.824351909,3.61138963 0.915256813,3.46676913 C0.902860691,3.60932391 0.894596203,3.77666975 0.915256813,3.82625531 C0.937982741,3.87790438 1.06194341,3.71675566 1.16937613,3.53907872 C2.63417809,3.20025406 3.97088953,4.21259922 4.11137766,5.642279 C4.08451934,5.41914953 3.80973984,5.29518928 3.68371391,5.32617997 C3.62173281,5.47906425 3.51636647,5.67533509 3.34695397,5.79722997 C3.36141581,5.66087291 3.35522063,5.52038478 3.32629403,5.38402741 C3.28084116,5.57410081 3.19200238,5.75177869 3.07010718,5.90466297 C2.87383613,5.9191245 2.67756459,5.82408766 2.5742636,5.68153381 C2.56599624,5.67533509 2.56393376,5.66293925 2.55773568,5.65467547 C2.55153754,5.64021203 2.54533956,5.62575144 2.54120777,5.61128863 C2.53500973,5.59682709 2.53087799,5.58236459 2.52881165,5.56790303 C2.52674211,5.55344022 2.52674211,5.53897838 2.52674211,5.52245081 C2.52674211,5.51212003 2.52674211,5.50179053 2.52674211,5.49146106 C2.52881165,5.47699759 2.53294018,5.46253575 2.53707194,5.44807356 C2.54120073,5.43361203 2.54533924,5.41914953 2.55153444,5.40468734 C2.55980181,5.39022613 2.56599598,5.37576363 2.57632678,5.36130209 C2.6114489,5.26213222 2.6114489,5.1815585 2.54740274,5.13404056 C2.53500656,5.12577325 2.52261041,5.11957775 2.50814791,5.11337966 C2.49988048,5.11131106 2.48955361,5.10718159 2.48129021,5.10511269 C2.47509211,5.10304409 2.47096041,5.10098319 2.4647623,5.09891428 C2.45029977,5.09478544 2.43583723,5.09064666 2.4213757,5.08858447 C2.4069132,5.08445594 2.39245166,5.08238641 2.37798916,5.08238641 C2.36352759,5.08031463 2.34699868,5.07825753 2.33253717,5.07825753 C2.3222074,5.07825753 2.3118766,5.08032613 2.30154676,5.08032613 C2.2850189,5.08032613 2.27055641,5.08239791 2.2560948,5.08652422 C2.2416323,5.088596 2.2271708,5.09065275 2.2127083,5.09479088 C2.19824669,5.09892003 2.18378416,5.10305847 2.16932167,5.10925431 C2.15486016,5.11545209 2.14246394,5.12165016 2.12800151,5.12784822 C2.11560631,5.13404663 2.10321009,5.14230978 2.08874763,5.14850784 C1.60736652,5.4625415 1.89454266,6.19804181 2.22303814,6.41084116 C2.0990774,6.43356713 1.97305138,6.46042641 1.9379292,6.48728347 C1.93585966,6.48935203 1.93380041,6.49141263 1.93380041,6.49141263 C2.02263893,6.54512834 2.11560925,6.59058091 2.21271118,6.62983475 C2.34493633,6.67322128 2.48542482,6.71247544 2.54740562,6.72900397 C2.54740562,6.72900397 2.54740562,6.73107256 2.54740562,6.73107256 C2.71888459,6.766195 2.89242997,6.77859116 3.06804083,6.76826134 C3.98328472,6.70421488 4.73324722,6.00796809 4.86960425,5.09065913 C4.87373309,5.10925369 4.87787156,5.12578094 4.88200041,5.14437581 C4.88819881,5.18156297 4.89646194,5.22081747 4.90059369,5.26007163 C4.90059369,5.26007163 4.90059369,5.26007163 4.90059369,5.26214341 C4.90472253,5.28073763 4.90679175,5.29933156 4.90886097,5.31585944 C4.90886097,5.31998828 4.90886097,5.3220575 4.90886097,5.32412706 C4.91093275,5.34272097 4.91299016,5.3613155 4.91299016,5.37784309 C4.91505872,5.40056938 4.917119,5.423295 4.917119,5.44602225 C4.917119,5.45635206 4.917119,5.46668219 4.917119,5.479078 C4.917119,5.48940878 4.91918759,5.50180366 4.91918759,5.51213441 C4.91918759,5.52453091 4.917119,5.53692609 4.917119,5.54932225 C4.917119,5.55965334 4.917119,5.56998281 4.917119,5.57824628 C4.917119,5.59270909 4.91504722,5.60510463 4.91504722,5.61956678 C4.91504722,5.62783344 4.91504722,5.636095 4.91297863,5.64642513 C4.91297863,5.66088794 4.91091006,5.67534884 4.91091006,5.69187703 C4.90883828,5.69807513 4.90883828,5.70427319 4.90883828,5.71047159 C4.90676969,5.72699981 4.90470941,5.74146197 4.90263988,5.75799019 C4.90263988,5.76418859 4.90263988,5.77038603 4.90057128,5.77658472 C4.8984995,5.79724403 4.89437353,5.81583891 4.89230497,5.83649819 C4.89230497,5.83649819 4.89230497,5.83856997 4.89230497,5.83856997 L4.89230497,5.84063856 C4.88817609,5.85923247 4.88403703,5.87989241 4.87990784,5.89848631 C4.87990784,5.90055491 4.87990784,5.90261516 4.87990784,5.90468472 C4.87577963,5.92327831 4.87164053,5.94187319 4.86751234,5.96046644 C4.86751234,5.96253822 4.86544375,5.96666484 4.86544375,5.96873309 C4.86131425,5.98732797 4.85717581,6.00592188 4.85098222,6.02451706 C4.85098222,6.02658566 4.85098222,6.02864528 4.85098222,6.0307145 C4.84478413,6.05137381 4.83858572,6.06996834 4.83445338,6.08856259 C4.83238478,6.09063116 4.83238478,6.09269144 4.83238478,6.09269144 C4.82618638,6.11335203 4.81998894,6.13401163 4.8137915,6.15467156 C4.80552422,6.17533216 4.79932934,6.19392606 4.79106553,6.21458631 C4.78279856,6.23524656 4.77660272,6.25590681 4.76833894,6.27450041 C4.76007131,6.29516131 4.75181041,6.31375553 4.74354697,6.33441484 C4.74354697,6.33441484 4.74147519,6.33441484 4.74147519,6.33441484 C4.73320725,6.35300875 4.724946,6.37366963 4.71461556,6.39226419 C4.71461556,6.39226419 4.71461556,6.39226419 4.71461556,6.39226419 C4.71461556,6.39226419 4.71461556,6.39226419 4.71461556,6.39226419 C4.71254697,6.39846131 4.71048734,6.402594 4.70841813,6.40672509 C4.70634953,6.40879688 4.70634953,6.41085394 4.70428928,6.41292381 C4.56999891,6.68357059 4.37166075,6.92116194 4.12374025,7.10710359 C4.10721238,7.11743341 4.09068384,7.12982988 4.07415628,7.14222541 C4.07415628,7.14222541 4.07415628,7.14222541 4.07415628,7.14222541 C4.07002709,7.14635456 4.0638255,7.14842409 4.05969378,7.15255519 C4.04523128,7.16288531 4.03076941,7.17321481 4.01424219,7.18354591 L4.02043994,7.19594206 L4.0225085,7.19594206 C4.05143222,7.19181353 4.08035659,7.18767475 4.10928094,7.18354591 L4.11134953,7.18354591 C4.16506619,7.17527859 4.21878253,7.16495169 4.27249922,7.15462188 C4.28696044,7.15255009 4.30348959,7.14842409 4.31795081,7.14429109 C4.32828063,7.14221931 4.33654503,7.14016256 4.34687484,7.13809303 C4.36133734,7.13602125 4.37579922,7.13189494 4.39026203,7.12982603 C4.40265753,7.12569719 4.415054,7.12362731 4.42744984,7.11949591 C4.63405081,7.06991097 4.83445466,7.00173213 5.02659247,6.92115841 C4.69809759,7.36948244 4.25803638,7.731035 3.74359953,7.96862634 C3.98119153,7.95209813 4.21878253,7.91284428 4.44810978,7.84673213 C5.28071297,7.60087541 5.9810905,7.04098694 6.40049081,6.28689241 C6.31578441,6.76414175 6.12571134,7.21866419 5.84473409,7.61533884 C6.045137,7.48311291 6.22901197,7.33022828 6.39635909,7.15668341 C6.85914563,6.67323694 7.16285009,6.05963216 7.26614978,5.40057288 C7.33639466,5.727003 7.35705491,6.06376422 7.32606453,6.39639144 C8.81772538,4.31591713 7.45002509,2.15900052 6.87774019,1.59084729 C6.87566841,1.58671866 6.87361131,1.58464928 6.87361131,1.58051752 C6.87153953,1.5825861 6.87153953,1.5825861 6.87153953,1.5846465 C6.87153953,1.58257759 6.87153953,1.58257759 6.86947097,1.58051752 C6.86947097,1.60530988 6.86740238,1.63010111 6.86534209,1.65489351 C6.85914372,1.70241178 6.85294628,1.74786399 6.84468153,1.79331687 C6.83435203,1.83876879 6.82195556,1.88422008 6.80955909,1.92967328 C6.79509756,1.97305885 6.77857031,2.0185111 6.75997544,2.06189795 C6.74138122,2.10321751 6.72072094,2.14660404 6.697995,2.18792487 C6.67526872,2.22717936 6.65047672,2.26849923 6.62361903,2.30568705 C6.59676069,2.34494218 6.56783634,2.38212968 6.53891166,2.41725115 C6.50792097,2.45444025 6.47486581,2.48749666 6.44180909,2.52055275 C6.42114947,2.53914698 6.40255556,2.55567487 6.38189434,2.57220211 C6.36536678,2.58666493 6.35090494,2.5990614 6.33437609,2.6135223 C6.29718828,2.64244666 6.26000013,2.66930499 6.21868025,2.69409762 C6.17942578,2.71888928 6.13810653,2.74368159 6.09678603,2.76434217 C6.0533995,2.7850021 6.01001297,2.80359601 5.96662706,2.82219056 C5.92324053,2.83871781 5.87778859,2.85318031 5.83233506,2.86557678 C5.78688347,2.87797229 5.73936553,2.88830274 5.69391297,2.89656653 C5.64639534,2.90483383 5.59887675,2.90896236 5.5534245,2.91309505 C5.52036809,2.91516363 5.48731231,2.91722422 5.45425559,2.91722422 C5.406737,2.91722422 5.35921969,2.91309505 5.31376713,2.90895692 C5.26624919,2.90482807 5.21873028,2.89862552 5.17327834,2.88829571 C5.12576009,2.88002841 5.08030722,2.86763513 5.03485497,2.85317423 L5.03278638,2.85317423 C5.07823863,2.84904538 5.12369119,2.84490629 5.16914406,2.83664571 C5.21666138,2.82837841 5.26211363,2.81805212 5.3075665,2.80565501 C5.35301844,2.79325917 5.39847066,2.77879667 5.44185688,2.76226911 C5.48730881,2.7457409 5.53069566,2.72508161 5.57201619,2.70442039 C5.61540206,2.68375982 5.65465656,2.66103449 5.69597644,2.63624219 C5.73523028,2.60938418 5.77448475,2.58252648 5.81167291,2.55360148 C5.84886138,2.52467777 5.88398284,2.49368802 5.91704022,2.46063162 C5.95216231,2.42964059 5.98315206,2.3945188 6.01414244,2.35939636 C6.04513188,2.32220918 6.07405656,2.28502072 6.10091488,2.24783226 C6.10504406,2.24163387 6.1091825,2.23337072 6.11331169,2.22717233 C6.13397097,2.19411592 6.15463059,2.16105983 6.1732245,2.1280031 C6.19595109,2.08668291 6.21661169,2.04536239 6.23520525,2.00197714 C6.25379981,1.9585906 6.27032803,1.91520374 6.28479019,1.86975214 C6.29925175,1.82636528 6.30958188,1.78091368 6.31991231,1.73546182 C6.32817994,1.6879433 6.33643988,1.64249035 6.34057225,1.59703849 C6.34470109,1.54952042 6.34883922,1.50200186 6.34883922,1.45655007 C6.34883922,1.4234934 6.34676744,1.39043757 6.344711,1.3573817 C6.34058184,1.30986356 6.33438056,1.26441055 6.32818281,1.21895866 C6.31991519,1.17144017 6.30958891,1.12598838 6.29719209,1.0805353 C6.28273088,1.03714969 6.26826806,0.991697031 6.2517405,0.948311488 C6.23521134,0.904924694 6.21455238,0.86153835 6.19389116,0.820217806 C6.17116519,0.778897678 6.14843953,0.73757755 6.12364756,0.698323706 C6.09678953,0.659069859 6.06993056,0.621881494 6.04100653,0.584692716 C6.01001713,0.549570569 5.97902672,0.514448484 5.94596969,0.479326372 C5.92944213,0.462798581 5.91084756,0.444204191 5.89225366,0.4276765 C5.79928347,0.355365603 5.70218059,0.287186793 5.60507866,0.225206889 C5.59061681,0.216939782 5.57822066,0.210744646 5.56375816,0.20454625 C5.49557931,0.161160608 5.43153316,0.13843372 5.36748731,0.117762753 L5.36748381,0.117762753 Z"
                  id="Shape"/>
        </g>
    </g>
</svg>